<svg xmlns="http://www.w3.org/2000/svg" viewBox="0 0 512 512" width="100%" height="100%">
  <defs>
    <!-- Silver metallic gradient -->
    <linearGradient id="silverMetal" x1="0%" y1="0%" x2="100%" y2="100%">
      <stop offset="0%" stop-color="#FFFFFF" />
      <stop offset="25%" stop-color="#E6E6E6" />
      <stop offset="50%" stop-color="#8A95A5" />
      <stop offset="75%" stop-color="#E6E6E6" />
      <stop offset="100%" stop-color="#5C6672" />
    </linearGradient>
    
    <!-- Teal-to-Silver gradient for blade -->
    <linearGradient id="tealBladeGradient" x1="0%" y1="100%" x2="100%" y2="0%">
      <stop offset="0%" stop-color="#8A95A5" />
      <stop offset="45%" stop-color="#008B8B" />
      <stop offset="80%" stop-color="#00D6C6" />
      <stop offset="100%" stop-color="#00FFFF" />
    </linearGradient>
    
    <!-- Outer Glow for Teal Accents -->
    <filter id="tealGlow" x="-20%" y="-20%" width="140%" height="140%">
      <feGaussianBlur stdDeviation="8" result="blur" />
      <feComposite in="SourceGraphic" in2="blur" operator="over" />
    </filter>
  </defs>

  <!-- Deep Navy Background Tile -->
  <rect width="512" height="512" rx="110" fill="#0B0F16" stroke="#1E293B" stroke-width="6"/>

  <!-- Subtle Background Grid Effect (sports intelligence aesthetic) -->
  <path d="M 64 0 L 64 512 M 128 0 L 128 512 M 192 0 L 192 512 M 256 0 L 256 512 M 320 0 L 320 512 M 384 0 L 384 512 M 448 0 L 448 512" stroke="#1E293B" stroke-width="1.5" opacity="0.3"/>
  <path d="M 0 64 L 512 64 M 0 128 L 512 128 M 0 192 L 512 192 M 0 256 L 512 256 M 0 320 L 512 320 M 0 384 L 512 384 M 0 448 L 512 448" stroke="#1E293B" stroke-width="1.5" opacity="0.3"/>

  <!-- Centered and Scaled K-Mark logo -->
  <g transform="translate(256, 256) scale(1.7) translate(-260, -210)">
    
    <!-- 1. DATA / SIGNALS (Peak wave of teal equalizer bars at bottom-left of spine) -->
    <g filter="url(#tealGlow)">
      <!-- Bar 1 -->
      <rect x="192" y="305" width="3" height="20" rx="1.5" fill="#00D6C6" />
      <!-- Bar 2 -->
      <rect x="198" y="285" width="3" height="40" rx="1.5" fill="#00D6C6" />
      <!-- Bar 3 (Tallest Peak) -->
      <rect x="204" y="260" width="3" height="65" rx="1.5" fill="#00D6C6" />
      <!-- Bar 4 -->
      <rect x="210" y="280" width="3" height="45" rx="1.5" fill="#00D6C6" />
      <!-- Bar 5 -->
      <rect x="216" y="295" width="3" height="30" rx="1.5" fill="#00D6C6" />
    </g>

    <!-- 2. INTELLIGENCE / DECISION (Solid Silver K Body) -->
    <path d="M 200 100 L 232 100 L 232 180 L 285 135 L 268 155 L 232 205 L 320 325 L 288 325 L 232 245 L 200 270 Z" fill="url(#silverMetal)" />
    
    <!-- 3. DIRECTION / EDGE (Teal Blade Tip on Upper-Right Branch) -->
    <path d="M 285 135 L 330 95 L 295 145 L 268 155 Z" fill="url(#tealBladeGradient)" filter="url(#tealGlow)" />
  </g>
</svg>
